<svg width="240" height="240" viewBox="0 0 240 240" fill="none" xmlns="http://www.w3.org/2000/svg">
<rect width="240" height="240" fill="black"/>
<path fill-rule="evenodd" clip-rule="evenodd" d="M94.5783 65.7086C94.7637 80.6047 106.244 92.6324 120.364 92.6324H171.821C165.027 92.6693 158.519 95.5415 153.712 100.628C148.877 105.745 146.159 112.685 146.157 119.922V174.279C146.045 159.319 134.533 147.212 120.367 147.212H69.1701C83.2307 146.997 94.5783 134.853 94.5783 119.922V65.7086ZM94.5772 65.6028C94.4464 80.5491 82.9448 92.6353 68.7907 92.6353V147.215C68.8804 147.215 68.97 147.215 69.0594 147.214C83.1715 147.366 94.5791 159.532 94.5791 174.502H94.624V201.746H146.199V174.456H146.157C146.157 174.418 146.157 174.381 146.157 174.343C146.236 159.35 157.758 147.209 171.944 147.209V147.114H197.732V92.5338H171.944V92.6321C171.916 92.6321 171.887 92.6321 171.859 92.6323C165.05 92.6064 158.526 89.733 153.71 84.6365C148.874 79.5192 146.157 72.5794 146.154 65.3424H94.576C94.576 65.4293 94.5764 65.5161 94.5772 65.6028ZM146.108 65.29V38H94.5327V65.29H146.108ZM43 92.6321H68.7876V147.212H43V92.6321Z" fill="#A6FF00"/>
</svg>
