<svg width="1671" height="501" viewBox="0 0 1671 501" fill="none" xmlns="http://www.w3.org/2000/svg">
<path d="M252.023 295.278C285.606 295.278 319.19 295.356 352.8 295.278C415.177 295.094 464.062 248.111 464.168 188.322C464.275 127.851 415.47 80.6582 352.614 80.5011C334.066 80.4487 315.518 80.0559 296.996 80.6844C287.948 80.9987 282.679 78.2488 277.783 70.3921C244.864 17.7259 185.149 -8.20132 122.825 2.3005C64.5994 12.0952 16.0603 58.8689 3.28686 117.454C-16.3257 207.492 54.354 294.387 148.106 295.225C182.754 295.54 217.375 295.278 252.023 295.278ZM260.326 241.04C217.535 241.04 177.139 243.685 137.275 240.359C90.8647 236.457 56.2434 196.964 54.5669 152.704C52.5444 99.043 93.792 54.5739 146.695 53.4216C202.419 52.1907 245.61 93.8051 245.929 148.907C246.115 179.732 242.443 211.08 260.326 241.04ZM321.292 131.727C328.983 132.015 349.766 133.848 357.457 134.084C386.517 135.027 409.855 159.252 409.775 188.217C409.722 216.972 385.905 241.014 356.792 241.747C327.36 242.481 301.813 220.089 300.535 191.648C299.79 175.148 297.209 146.262 296.969 129.737" fill="#01EE8A"/>
<path d="M705.172 170.289C705.172 186.544 701.379 199.115 693.793 208.109C686.207 217.104 675.045 221.547 660.253 221.547C645.46 221.547 634.623 217.05 627.038 208.109C619.452 199.169 615.659 186.544 615.659 170.289V42.4678H573.883V171.21C573.883 191.041 577.351 207.622 584.34 221.059C591.276 234.443 601.192 244.576 614.088 251.403C626.929 258.23 642.372 261.698 660.253 261.698C678.134 261.698 693.901 258.284 706.743 251.403C719.585 244.576 729.446 234.443 736.328 221.059C743.155 207.676 746.623 191.041 746.623 171.21V42.4678H705.172V170.289Z" fill="white"/>
<path d="M903.053 110.04C892.379 103.213 880.025 99.7454 865.882 99.7454C851.74 99.7454 840.524 103.051 830.283 109.715C825.894 112.587 821.993 116.055 818.417 119.902L813.703 103.213H782.709V318H824.161V247.777C826.003 249.294 827.845 250.757 829.85 252.003C839.982 258.451 851.903 261.648 865.612 261.648C879.32 261.648 892.162 258.235 902.945 251.353C913.727 244.526 922.072 234.935 928.086 222.744C934.101 210.498 937.081 196.464 937.081 180.643C937.081 164.821 934.101 150.516 928.086 138.433C922.072 126.35 913.727 116.813 903.107 109.932L903.053 110.04ZM884.684 211.582C877.803 219.493 869.134 223.448 858.568 223.448C848.002 223.448 839.278 219.493 832.288 211.582C825.353 203.671 821.831 193.376 821.831 180.751C821.831 168.126 825.298 157.506 832.288 149.595C839.224 141.684 848.002 137.729 858.568 137.729C869.134 137.729 877.803 141.738 884.684 149.758C891.512 157.777 894.979 168.126 894.979 180.751C894.979 193.376 891.566 203.671 884.684 211.582Z" fill="white"/>
<path d="M998.74 137.074C1002.32 134.961 1006.43 133.932 1011.09 133.932C1019.55 133.932 1026.92 135.503 1033.26 138.7C1039.6 141.897 1044.74 145.581 1048.75 149.753L1075.63 127.267C1069.5 119.464 1061.43 112.8 1051.41 107.327C1041.38 101.854 1029.3 99.0911 1015.16 99.0911C1003.13 99.0911 992.726 101.313 984.002 105.756C975.224 110.199 968.559 116.159 963.9 123.637C959.24 131.114 956.964 139.404 956.964 148.453C956.964 161.728 960.974 172.023 968.993 179.284C977.012 186.545 989.041 192.288 1005.08 196.515C1013.75 198.628 1020.31 200.633 1024.86 202.529C1029.41 204.425 1032.5 206.376 1034.18 208.381C1035.86 210.386 1036.72 212.661 1036.72 215.208C1036.72 219.001 1035.15 222.144 1031.96 224.69C1028.81 227.237 1024.59 228.483 1019.28 228.483C1011.47 228.483 1004.43 226.858 998.252 223.553C992.021 220.302 985.519 214.883 978.8 207.243L953.496 229.404C961.732 241.433 971.16 249.886 981.835 254.709C992.509 259.585 1003.73 261.969 1015.54 261.969C1026.7 261.969 1036.78 259.91 1045.77 255.792C1054.71 251.674 1061.86 245.876 1067.12 238.399C1072.38 230.922 1075.03 222.09 1075.03 211.957C1075.03 199.278 1070.91 189.2 1062.68 181.614C1054.44 174.028 1040.84 168.014 1021.88 163.57C1010.71 160.807 1003.13 158.206 999.228 155.66C995.326 153.113 993.376 149.97 993.376 146.177C993.376 142.168 995.164 139.133 998.74 137.02V137.074Z" fill="white"/>
<path d="M1214.99 110.04C1202.86 103.213 1188.77 99.7454 1172.78 99.7454C1156.8 99.7454 1142.66 103.159 1130.57 110.04C1118.44 116.922 1109.01 126.404 1102.24 138.541C1095.46 150.679 1092.1 164.767 1092.1 180.751C1092.1 196.735 1095.46 210.878 1102.24 222.961C1109.01 235.098 1118.44 244.58 1130.57 251.462C1142.71 258.289 1156.8 261.757 1172.78 261.757C1188.77 261.757 1202.91 258.343 1214.99 251.462C1227.13 244.634 1236.56 235.098 1243.33 222.961C1250.1 210.823 1253.46 196.735 1253.46 180.751C1253.46 164.767 1250.1 150.625 1243.33 138.541C1236.56 126.404 1227.13 116.922 1214.99 110.04ZM1200.58 210.336C1193.43 217.813 1184.11 221.552 1172.73 221.552C1161.35 221.552 1152.08 217.759 1145.04 210.173C1138 202.587 1134.42 192.672 1134.42 180.426C1134.42 168.18 1137.94 158.319 1145.04 150.841C1152.08 143.364 1161.35 139.625 1172.73 139.625C1184.11 139.625 1193.37 143.418 1200.58 151.004C1207.73 158.59 1211.36 168.505 1211.36 180.751C1211.36 192.997 1207.79 202.858 1200.58 210.336Z" fill="white"/>
<path d="M1411.13 119.685C1407.88 113.562 1403.01 108.74 1396.56 105.11C1390.11 101.533 1381.66 99.7454 1371.09 99.7454C1362.26 99.7454 1353.81 101.154 1345.79 104.026C1337.77 106.844 1330.24 110.745 1323.19 115.567C1320.16 117.626 1317.34 119.956 1314.58 122.286L1309.11 103.213H1278.11V257.91H1319.56V158.264C1321.73 155.989 1324.11 153.767 1326.66 151.762C1331.43 148.078 1336.52 145.206 1342 143.201C1347.47 141.196 1352.83 140.221 1358.14 140.221C1363.83 140.221 1368.55 141.792 1372.23 144.989C1375.92 148.132 1377.76 154.472 1377.76 163.954V257.91H1419.21V164.279C1419.21 156.043 1418.67 148.078 1417.64 140.384C1416.55 132.689 1414.44 125.754 1411.13 119.685Z" fill="white"/>
<path d="M1474.27 29.5215C1466.68 29.5215 1460.61 31.9056 1456.06 36.6197C1451.51 41.3879 1449.29 47.5107 1449.29 55.1507C1449.29 62.303 1451.56 68.2091 1456.06 72.869C1460.61 77.5288 1466.68 79.8046 1474.27 79.8046C1481.85 79.8046 1487.92 77.4747 1492.47 72.869C1497.02 68.2091 1499.3 62.303 1499.3 55.1507C1499.3 47.5649 1497.02 41.3879 1492.47 36.6197C1487.92 31.8514 1481.85 29.5215 1474.27 29.5215Z" fill="white"/>
<path d="M1495.12 103.265H1453.67V257.962H1495.12V103.265Z" fill="white"/>
<path d="M1620.23 215.372C1614.87 219.273 1608.15 221.224 1600.13 221.224C1589.78 221.224 1581.17 217.648 1574.18 210.441C1567.24 203.289 1563.72 193.265 1563.72 180.369C1563.72 167.473 1567.19 157.72 1574.18 150.459C1581.11 143.198 1589.78 139.568 1600.13 139.568C1608.15 139.568 1614.87 141.573 1620.23 145.582C1625.6 149.592 1629.88 155.173 1633.02 162.325L1671.01 145.853C1665.53 131.711 1656.48 120.495 1643.97 112.151C1631.4 103.806 1616.93 99.634 1600.46 99.634C1583.99 99.634 1570.82 103.048 1559.01 109.929C1547.19 116.81 1538.09 126.347 1531.64 138.538C1525.19 150.784 1522 164.709 1522 180.315C1522 195.92 1525.19 210.17 1531.64 222.416C1538.09 234.661 1547.19 244.252 1559.01 251.188C1570.82 258.123 1584.64 261.645 1600.46 261.645C1616.28 261.645 1631.13 257.365 1643.8 248.804C1656.48 240.243 1665.53 229.026 1671.01 215.101L1633.02 198.629C1629.88 205.781 1625.6 211.362 1620.23 215.264V215.372Z" fill="white"/>
<path d="M1296.52 427H1269.45V350.636H1296.75C1304.43 350.636 1311.04 352.165 1316.58 355.223C1322.13 358.255 1326.39 362.618 1329.37 368.31C1332.38 374.003 1333.88 380.814 1333.88 388.744C1333.88 396.698 1332.38 403.534 1329.37 409.251C1326.39 414.969 1322.1 419.356 1316.51 422.414C1310.94 425.471 1304.28 427 1296.52 427ZM1285.6 413.167H1295.85C1300.62 413.167 1304.64 412.321 1307.89 410.631C1311.18 408.916 1313.64 406.268 1315.28 402.689C1316.94 399.085 1317.77 394.436 1317.77 388.744C1317.77 383.101 1316.94 378.49 1315.28 374.91C1313.64 371.331 1311.19 368.696 1307.93 367.005C1304.67 365.315 1300.66 364.47 1295.89 364.47H1285.6V413.167ZM1371.42 428.119C1365.63 428.119 1360.62 426.888 1356.39 424.427C1352.19 421.941 1348.95 418.486 1346.66 414.061C1344.38 409.612 1343.23 404.454 1343.23 398.587C1343.23 392.671 1344.38 387.501 1346.66 383.076C1348.95 378.626 1352.19 375.171 1356.39 372.71C1360.62 370.224 1365.63 368.982 1371.42 368.982C1377.21 368.982 1382.21 370.224 1386.41 372.71C1390.64 375.171 1393.89 378.626 1396.18 383.076C1398.47 387.501 1399.61 392.671 1399.61 398.587C1399.61 404.454 1398.47 409.612 1396.18 414.061C1393.89 418.486 1390.64 421.941 1386.41 424.427C1382.21 426.888 1377.21 428.119 1371.42 428.119ZM1371.5 415.814C1374.13 415.814 1376.33 415.068 1378.1 413.577C1379.86 412.06 1381.19 409.997 1382.09 407.387C1383.01 404.777 1383.47 401.806 1383.47 398.475C1383.47 395.145 1383.01 392.174 1382.09 389.564C1381.19 386.954 1379.86 384.891 1378.1 383.374C1376.33 381.858 1374.13 381.1 1371.5 381.1C1368.84 381.1 1366.6 381.858 1364.78 383.374C1362.99 384.891 1361.64 386.954 1360.72 389.564C1359.83 392.174 1359.38 395.145 1359.38 398.475C1359.38 401.806 1359.83 404.777 1360.72 407.387C1361.64 409.997 1362.99 412.06 1364.78 413.577C1366.6 415.068 1368.84 415.814 1371.5 415.814ZM1435.82 428.119C1429.95 428.119 1424.9 426.876 1420.68 424.39C1416.48 421.879 1413.24 418.399 1410.98 413.95C1408.75 409.5 1407.63 404.379 1407.63 398.587C1407.63 392.721 1408.76 387.575 1411.02 383.151C1413.31 378.701 1416.55 375.233 1420.75 372.748C1424.95 370.237 1429.95 368.982 1435.74 368.982C1440.74 368.982 1445.11 369.889 1448.87 371.703C1452.62 373.518 1455.59 376.066 1457.78 379.347C1459.97 382.629 1461.17 386.482 1461.39 390.906H1446.41C1445.98 388.048 1444.86 385.748 1443.05 384.008C1441.26 382.243 1438.91 381.361 1436 381.361C1433.54 381.361 1431.39 382.032 1429.55 383.374C1427.74 384.692 1426.32 386.618 1425.3 389.154C1424.28 391.689 1423.77 394.759 1423.77 398.364C1423.77 402.018 1424.27 405.125 1425.26 407.685C1426.28 410.246 1427.71 412.197 1429.55 413.539C1431.39 414.882 1433.54 415.553 1436 415.553C1437.82 415.553 1439.45 415.18 1440.89 414.434C1442.35 413.689 1443.56 412.607 1444.5 411.19C1445.47 409.749 1446.11 408.021 1446.41 406.007H1461.39C1461.15 410.382 1459.95 414.235 1457.82 417.566C1455.7 420.873 1452.78 423.458 1449.05 425.322C1445.32 427.186 1440.91 428.119 1435.82 428.119ZM1519.22 386.059L1504.68 386.954C1504.43 385.711 1503.89 384.592 1503.07 383.598C1502.25 382.579 1501.17 381.771 1499.83 381.174C1498.51 380.553 1496.93 380.242 1495.09 380.242C1492.63 380.242 1490.56 380.764 1488.87 381.808C1487.18 382.827 1486.33 384.195 1486.33 385.91C1486.33 387.277 1486.88 388.433 1487.97 389.377C1489.06 390.322 1490.94 391.08 1493.6 391.652L1503.97 393.74C1509.54 394.884 1513.69 396.723 1516.42 399.259C1519.16 401.794 1520.52 405.125 1520.52 409.251C1520.52 413.005 1519.42 416.299 1517.2 419.132C1515.02 421.966 1512.01 424.179 1508.18 425.77C1504.38 427.336 1499.99 428.119 1495.02 428.119C1487.44 428.119 1481.4 426.54 1476.9 423.383C1472.42 420.201 1469.8 415.876 1469.03 410.407L1484.65 409.587C1485.12 411.899 1486.27 413.664 1488.08 414.882C1489.9 416.075 1492.22 416.672 1495.06 416.672C1497.84 416.672 1500.08 416.137 1501.77 415.068C1503.48 413.974 1504.35 412.57 1504.38 410.855C1504.35 409.413 1503.74 408.232 1502.55 407.312C1501.36 406.368 1499.52 405.647 1497.03 405.15L1487.11 403.174C1481.52 402.055 1477.36 400.116 1474.62 397.357C1471.91 394.598 1470.56 391.08 1470.56 386.805C1470.56 383.126 1471.55 379.956 1473.54 377.297C1475.55 374.637 1478.38 372.586 1482.01 371.144C1485.66 369.702 1489.93 368.982 1494.83 368.982C1502.07 368.982 1507.76 370.51 1511.91 373.568C1516.09 376.625 1518.52 380.789 1519.22 386.059Z" fill="white" fill-opacity="0.4"/>
</svg>
