<svg width="334" height="67" viewBox="0 0 334 67" fill="none" xmlns="http://www.w3.org/2000/svg">
<path d="M326.275 10.4473H333.997V47.6433H326.275V10.4473Z" fill="#A6FF00"/>
<path d="M311.311 39.9971H297.608L295.035 47.6433H286.909L300.182 10.4473H308.964L322.137 47.6433H313.708L311.311 39.9971ZM309.141 33.5875L304.498 18.9514L299.703 33.5875H309.141Z" fill="#A6FF00"/>
<path d="M283.982 30.0043H276.613C276.479 28.9781 276.134 28.0528 275.579 27.2285C274.771 26.1182 273.518 25.563 271.819 25.563C269.396 25.563 267.739 26.7659 266.848 29.1716C266.377 30.4501 266.141 32.1493 266.141 34.269C266.141 36.2878 266.377 37.9112 266.848 39.1393C267.706 41.4272 269.321 42.5712 271.693 42.5712C273.375 42.5712 274.569 42.117 275.276 41.2085C275.983 40.3001 276.412 39.1225 276.563 37.6757H283.906C283.738 39.8627 282.947 41.9319 281.534 43.8834C279.28 47.0294 275.941 48.6023 271.516 48.6023C267.092 48.6023 263.836 47.2901 261.75 44.6657C259.664 42.0413 258.621 38.6346 258.621 34.4456C258.621 29.7183 259.773 26.0425 262.078 23.4181C264.383 20.7937 267.563 19.4814 271.617 19.4814C275.066 19.4814 277.884 20.2553 280.071 21.803C282.274 23.3508 283.578 26.0845 283.982 30.0043Z" fill="white"/>
<path d="M253.196 20.1375V47.6433H245.903V20.1375H253.196ZM253.196 10.2202V16.8569H245.903V10.2202H253.196Z" fill="white"/>
<path d="M227.153 25.4621C224.714 25.4621 223.04 26.4967 222.132 28.5659C221.66 29.6595 221.425 31.0558 221.425 32.7549V47.6434H214.258V20.188H221.198V24.2003C222.123 22.7872 222.998 21.7694 223.822 21.1469C225.303 20.0366 227.178 19.4814 229.45 19.4814C232.293 19.4814 234.614 20.2301 236.414 21.7273C238.231 23.2078 239.14 25.6724 239.14 29.1211V47.6434H231.771V30.9128C231.771 29.466 231.578 28.3557 231.191 27.5818C230.484 26.1686 229.138 25.4621 227.153 25.4621Z" fill="white"/>
<path d="M205.552 23.6205C207.874 26.5309 209.035 29.9712 209.035 33.9415C209.035 37.9791 207.874 41.4362 205.552 44.313C203.231 47.1729 199.706 48.6029 194.979 48.6029C190.252 48.6029 186.727 47.1729 184.405 44.313C182.084 41.4362 180.923 37.9791 180.923 33.9415C180.923 29.9712 182.084 26.5309 184.405 23.6205C186.727 20.7101 190.252 19.2549 194.979 19.2549C199.706 19.2549 203.231 20.7101 205.552 23.6205ZM194.954 25.3365C192.851 25.3365 191.227 26.0851 190.083 27.5823C188.956 29.0628 188.393 31.1825 188.393 33.9415C188.393 36.7005 188.956 38.8286 190.083 40.3259C191.227 41.8231 192.851 42.5718 194.954 42.5718C197.056 42.5718 198.672 41.8231 199.799 40.3259C200.926 38.8286 201.489 36.7005 201.489 33.9415C201.489 31.1825 200.926 29.0628 199.799 27.5823C198.672 26.0851 197.056 25.3365 194.954 25.3365Z" fill="white"/>
<path d="M172.797 21.3985C174.951 22.778 176.187 25.1501 176.507 28.5147H169.315C169.214 27.5894 168.953 26.8576 168.533 26.3193C167.742 25.3435 166.396 24.8557 164.495 24.8557C162.931 24.8557 161.812 25.0996 161.139 25.5875C160.483 26.0753 160.155 26.6473 160.155 27.3034C160.155 28.1278 160.508 28.725 161.215 29.0951C161.921 29.482 164.419 30.1465 168.709 31.0886C171.569 31.7616 173.714 32.7794 175.144 34.142C176.557 35.5215 177.264 37.2459 177.264 39.3152C177.264 42.0405 176.246 44.2696 174.21 46.0024C172.192 47.7183 169.063 48.5763 164.823 48.5763C160.5 48.5763 157.303 47.6679 155.234 45.851C153.181 44.0172 152.155 41.6872 152.155 38.8609H159.448C159.6 40.1395 159.928 41.0479 160.432 41.5863C161.324 42.5452 162.973 43.0247 165.378 43.0247C166.791 43.0247 167.91 42.8144 168.734 42.3938C169.576 41.9732 169.996 41.3424 169.996 40.5012C169.996 39.6937 169.66 39.0796 168.987 38.6591C168.314 38.2385 165.816 37.5151 161.492 36.4889C158.38 35.715 156.184 34.7477 154.906 33.5869C153.627 32.4429 152.988 30.7942 152.988 28.6409C152.988 26.1006 153.981 23.922 155.966 22.1051C157.968 20.2714 160.777 19.3545 164.394 19.3545C167.826 19.3545 170.627 20.0358 172.797 21.3985Z" fill="white"/>
<path d="M145.291 23.0898C147.512 25.4619 148.622 28.9443 148.622 33.537C148.622 38.3821 147.529 42.0748 145.342 44.6151C143.172 47.1554 140.371 48.4255 136.939 48.4255C134.752 48.4255 132.935 47.8788 131.488 46.7852C130.697 46.1796 129.924 45.2964 129.166 44.1356V58.4689H122.05V20.1374H128.939V24.2002C129.713 23.0057 130.538 22.0636 131.412 21.3739C133.011 20.1458 134.912 19.5317 137.115 19.5317C140.329 19.5317 143.054 20.7178 145.291 23.0898ZM141.203 33.8903C141.203 31.7706 140.716 29.8948 139.74 28.263C138.781 26.6311 137.216 25.8152 135.046 25.8152C132.439 25.8152 130.647 27.0517 129.671 29.5247C129.166 30.8369 128.914 32.5024 128.914 34.5212C128.914 37.7176 129.764 39.9635 131.463 41.2588C132.472 42.0159 133.667 42.3944 135.046 42.3944C137.048 42.3944 138.571 41.6205 139.614 40.0728C140.674 38.5251 141.203 36.4642 141.203 33.8903Z" fill="white"/>
<path d="M108.298 43.7569C108.23 43.841 108.062 44.0934 107.793 44.514C107.524 44.9345 107.204 45.3046 106.834 45.6243C105.707 46.6337 104.613 47.3234 103.554 47.6935C102.511 48.0636 101.282 48.2487 99.8693 48.2487C95.7981 48.2487 93.056 46.7851 91.6428 43.8579C90.8521 42.2428 90.4568 39.8624 90.4568 36.7164V20.1372H97.8253V36.7164C97.8253 38.281 98.0104 39.4586 98.3805 40.2493C99.0366 41.6456 100.324 42.3438 102.241 42.3438C104.698 42.3438 106.38 41.3512 107.288 39.3661C107.759 38.2894 107.995 36.8678 107.995 35.1014V20.1372H115.288V47.6431H108.298V43.7569Z" fill="white"/>
<path fill-rule="evenodd" clip-rule="evenodd" d="M21.3199 11.1875C21.3948 17.2019 26.0299 22.0582 31.7309 22.0582H52.507C49.7639 22.0731 47.1363 23.2327 45.1956 25.2864C43.2432 27.3526 42.1459 30.1545 42.1449 33.0765V55.0234C42.0997 48.9831 37.4517 44.0952 31.7321 44.0952H11.0612C16.7383 44.0084 21.3199 39.1048 21.3199 33.0765V11.1875ZM21.3195 11.1448C21.2667 17.1794 16.6228 22.0593 10.908 22.0593V44.0963C10.9442 44.0963 10.9804 44.0961 11.0165 44.0957C16.7143 44.1572 21.3202 49.0694 21.3202 55.1137H21.3384V66.1134H42.1622V55.0949H42.1453C42.1452 55.0797 42.1452 55.0645 42.1451 55.0493C42.1771 48.9958 46.829 44.0937 52.5568 44.0937V44.0553H62.9687V22.0183H52.5568V22.058C52.5453 22.058 52.5338 22.058 52.5223 22.0581C49.7733 22.0476 47.1391 20.8875 45.1947 18.8298C43.2423 16.7636 42.145 13.9616 42.144 11.0397H21.319C21.319 11.0747 21.3191 11.1098 21.3195 11.1448ZM42.144 11.0397L42.1253 0H21.3015L21.319 11.0397H42.144ZM0.494873 22.058H10.9068V44.095H0.494873V22.058Z" fill="#A6FF00"/>
</svg>
